<svg width="16" height="16" viewBox="0 0 16 16" fill="none" xmlns="http://www.w3.org/2000/svg">
<g opacity="0.7">
<path d="M16 7.88522C16 10.0048 15.6448 11.7241 15.2065 11.7241C14.7682 11.7241 14.4131 10.0052 14.4131 7.88522C14.4131 5.76522 14.7683 4.04639 15.2065 4.04639C15.6446 4.04639 16 5.76506 16 7.88522Z" fill="#2B231C"/>
<path d="M13.9755 7.88527C13.9755 10.2515 12.9653 12.1704 11.7192 12.1704C10.4731 12.1704 9.46289 10.2515 9.46289 7.88527C9.46289 5.51905 10.4729 3.6001 11.719 3.6001C12.9651 3.6001 13.9753 5.51844 13.9753 7.88527" fill="#2B231C"/>
<path d="M9.02496 7.8853C9.02496 10.3991 7.00463 12.4369 4.51256 12.4369C2.02049 12.4369 0 10.3986 0 7.8853C0 5.37195 2.02033 3.3335 4.51256 3.3335C7.00478 3.3335 9.02496 5.37148 9.02496 7.8853Z" fill="#2B231C"/>
</g>
</svg>
