<svg width="40" height="40" viewBox="0 0 40 40" fill="none" xmlns="http://www.w3.org/2000/svg">
<rect x="0.25" y="0.25" width="39.5" height="39.5" rx="19.75" fill="#FFFCF9"/>
<rect x="0.25" y="0.25" width="39.5" height="39.5" rx="19.75" stroke="#2B231C" stroke-width="0.5"/>
<g clip-path="url(#clip0_322_672)">
<path d="M27.8739 19.7593L23.4989 15.0718C23.2087 14.7608 22.6875 14.9662 22.6875 15.3916V16.7979H20.1629L16.5502 13.1852C16.4623 13.0973 16.3431 13.0479 16.2188 13.0479H12.4688C12.2099 13.0479 12 13.2577 12 13.5166C12 13.7755 12.2099 13.9854 12.4688 13.9854H16.0246L19.6373 17.5981C19.7252 17.686 19.8444 17.7354 19.9688 17.7354H23.1562C23.4151 17.7354 23.625 17.5255 23.625 17.2666V16.5808L26.89 20.0791L23.625 23.5774V22.8916C23.625 22.6327 23.4151 22.4229 23.1562 22.4229H19.9688C19.8444 22.4229 19.7252 22.4722 19.6373 22.5601L16.0246 26.1729H12.4688C12.2099 26.1729 12 26.3827 12 26.6416C12 26.9005 12.2099 27.1104 12.4688 27.1104H16.2188C16.3431 27.1104 16.4623 27.061 16.5502 26.9731L20.1629 23.3604H22.6875V24.7666C22.6875 25.192 23.2087 25.3975 23.4989 25.0864L27.8739 20.3989C28.042 20.2189 28.042 19.9394 27.8739 19.7593Z" fill="#2B231C"/>
<path d="M12.4688 20.5479H18.8371L18.3873 20.9976C18.2042 21.1807 18.2042 21.4775 18.3873 21.6606C18.5704 21.8436 18.8672 21.8436 19.0502 21.6606L20.3002 20.4106C20.4833 20.2275 20.4833 19.9307 20.3002 19.7476L19.0502 18.4976C18.8672 18.3146 18.5704 18.3146 18.3873 18.4976C18.2042 18.6807 18.2042 18.9775 18.3873 19.1606L18.8371 19.6104H12.4688C12.2099 19.6104 12 19.8202 12 20.0791C12 20.338 12.2099 20.5479 12.4688 20.5479Z" fill="#2B231C"/>
<path d="M12 16.6416C12 16.9005 12.2099 17.1104 12.4688 17.1104H15.3996L14.9498 17.5601C14.7667 17.7432 14.7667 18.04 14.9498 18.2231C15.1329 18.4061 15.4297 18.4061 15.6127 18.2231L16.8627 16.9731C17.0458 16.79 17.0458 16.4932 16.8627 16.3101L15.6127 15.0601C15.4297 14.8771 15.1329 14.8771 14.9498 15.0601C14.7667 15.2432 14.7667 15.54 14.9498 15.7231L15.3996 16.1729H12.4688C12.2099 16.1729 12 16.3827 12 16.6416Z" fill="#2B231C"/>
<path d="M12.4688 23.9854H15.3996L14.9498 24.4351C14.7667 24.6182 14.7667 24.915 14.9498 25.0981C15.1329 25.2811 15.4297 25.2811 15.6127 25.0981L16.8627 23.8481C17.0458 23.665 17.0458 23.3682 16.8627 23.1851L15.6127 21.9351C15.4297 21.7521 15.1329 21.7521 14.9498 21.9351C14.7667 22.1182 14.7667 22.415 14.9498 22.5981L15.3996 23.0479H12.4688C12.2099 23.0479 12 23.2577 12 23.5166C12 23.7755 12.2099 23.9854 12.4688 23.9854Z" fill="#2B231C"/>
</g>
<defs>
<clipPath id="clip0_322_672">
<rect width="16" height="16" fill="white" transform="translate(12 12.0791)"/>
</clipPath>
</defs>
</svg>
