<svg width="40" height="40" viewBox="0 0 40 40" fill="none" xmlns="http://www.w3.org/2000/svg">
<rect x="0.25" y="0.25" width="39.5" height="39.5" rx="19.75" fill="#FFFCF9"/>
<rect x="0.25" y="0.25" width="39.5" height="39.5" rx="19.75" stroke="#2B231C" stroke-width="0.5"/>
<path d="M21.7506 19.0503L28 17.8072L27.4514 15.0493L12 18.1228L12.5486 20.8807L17.2379 19.9479C16.8725 20.4786 16.6582 21.1211 16.6582 21.8127C16.6582 23.6302 18.1368 25.1089 19.9544 25.1089C21.7719 25.1089 23.2506 23.6302 23.2506 21.8127C23.2505 20.6573 22.6529 19.639 21.7506 19.0503ZM13.1022 18.8592L26.715 16.1514L26.8978 17.0707L19.3365 18.5748C19.3159 18.5787 19.2953 18.5827 19.2748 18.587L13.285 19.7785L13.1022 18.8592ZM19.9543 24.1716C18.6536 24.1716 17.5954 23.1134 17.5954 21.8127C17.5954 20.6771 18.4021 19.7265 19.4725 19.5034L19.4911 19.4997C19.641 19.4698 19.7958 19.4538 19.9544 19.4538C21.2551 19.4538 22.3133 20.512 22.3133 21.8127C22.3133 23.1134 21.255 24.1716 19.9543 24.1716Z" fill="#2B231C"/>
</svg>
