<svg width="40" height="40" viewBox="0 0 40 40" fill="none" xmlns="http://www.w3.org/2000/svg">
<rect x="0.25" y="0.25" width="39.5" height="39.5" rx="19.75" fill="#FFFCF9"/>
<rect x="0.25" y="0.25" width="39.5" height="39.5" rx="19.75" stroke="#2B231C" stroke-width="0.5"/>
<g clip-path="url(#clip0_322_684)">
<path d="M26.9734 25.3923L24.9898 21.4247C25.6391 20.467 26.0188 19.3125 26.0188 18.0708C26.0188 14.767 23.3309 12.0791 20.0271 12.0791C16.7233 12.0791 14.0354 14.767 14.0354 18.0708C14.0354 19.3125 14.4152 20.4672 15.0646 21.4249L13.0807 25.3923C13.0081 25.5377 13.0159 25.7102 13.1012 25.8484C13.1867 25.9866 13.3375 26.0708 13.5 26.0708H15.776L17.1416 27.8916C17.2307 28.0103 17.3699 28.0791 17.5166 28.0791C17.7111 28.0791 17.8643 27.9631 17.9359 27.8199L19.8168 24.0583C19.8866 24.0608 19.9567 24.0625 20.0271 24.0625C20.0976 24.0625 20.1676 24.0608 20.2374 24.0583L22.1183 27.8199C22.1897 27.9629 22.343 28.0791 22.5376 28.0791C22.6842 28.0791 22.8235 28.0103 22.9125 27.8916L24.2782 26.0708H26.5542C26.7167 26.0708 26.8676 25.9866 26.9529 25.8484C27.0383 25.7102 27.0462 25.5377 26.9734 25.3923ZM17.4367 26.7223L16.3854 25.3208C16.2969 25.2028 16.158 25.1333 16.0104 25.1333H14.2584L15.713 22.2244C16.539 23.0818 17.6171 23.6947 18.8269 23.9417L17.4367 26.7223ZM14.9729 18.0708C14.9729 15.2839 17.2403 13.0166 20.0271 13.0166C22.814 13.0166 25.0813 15.2839 25.0813 18.0708C25.0813 20.8577 22.814 23.125 20.0271 23.125C17.2403 23.125 14.9729 20.8577 14.9729 18.0708ZM24.0437 25.1333C23.8963 25.1333 23.7573 25.2028 23.6687 25.3208L22.6176 26.7223L21.2272 23.9417C22.4372 23.6946 23.5154 23.0818 24.3413 22.2241L25.7957 25.1332H24.0437V25.1333Z" fill="#2B231C"/>
<path d="M22.4197 18.8483L23.7288 17.2858C23.8326 17.162 23.8653 16.9935 23.8154 16.84C23.7655 16.6863 23.64 16.5692 23.4833 16.53L21.5059 16.0354L20.4243 14.3075C20.3386 14.1705 20.1884 14.0874 20.0269 14.0874C19.8654 14.0874 19.7153 14.1705 19.6296 14.3075L18.5482 16.0354L16.5709 16.53C16.4141 16.5692 16.2886 16.6863 16.2387 16.8398C16.1889 16.9935 16.2215 17.162 16.3253 17.2858L17.6343 18.8483L17.4935 20.8816C17.4824 21.0427 17.5549 21.1982 17.6855 21.2932C17.8839 21.4374 18.0856 21.3691 18.1363 21.3488L20.0269 20.5868L21.9176 21.3489C22.0673 21.4092 22.2376 21.3882 22.3682 21.2933C22.499 21.1984 22.5715 21.0428 22.5604 20.8817L22.4197 18.8483ZM21.5798 18.391C21.5019 18.484 21.4631 18.6034 21.4715 18.7244L21.5734 20.1993L20.2022 19.6466C20.0502 19.5853 19.9169 19.6202 19.8518 19.6466L18.4805 20.1993L18.5827 18.7245C18.591 18.6035 18.5522 18.484 18.4743 18.391L17.5249 17.2578L18.9591 16.899C19.0767 16.8696 19.1783 16.7958 19.2426 16.693L20.027 15.4397L20.8116 16.693C20.8759 16.7958 20.9775 16.8696 21.0952 16.899L22.5294 17.2578L21.5798 18.391Z" fill="#2B231C"/>
</g>
<defs>
<clipPath id="clip0_322_684">
<rect width="16" height="16" fill="white" transform="translate(12 12.0791)"/>
</clipPath>
</defs>
</svg>
