<svg width="40" height="40" viewBox="0 0 40 40" fill="none" xmlns="http://www.w3.org/2000/svg">
<rect x="0.25" y="0.25" width="39.5" height="39.5" rx="19.75" fill="#FFFCF9"/>
<rect x="0.25" y="0.25" width="39.5" height="39.5" rx="19.75" stroke="#2B231C" stroke-width="0.5"/>
<g clip-path="url(#clip0_322_694)">
<path d="M27.0336 17.9659C27.5507 17.9659 27.9714 17.5452 27.9714 17.0281V15.8139C27.9714 15.4289 27.7408 15.0876 27.3837 14.9439L20.352 12.0687C20.123 11.9765 19.8752 11.9781 19.652 12.0674C19.6468 12.0695 19.7697 12.0193 12.617 14.944C12.2599 15.0876 12.0293 15.4289 12.0293 15.8139V17.0282C12.0293 17.5453 12.45 17.966 12.9671 17.966H13.5297V25.0305H12.9671C12.45 25.0305 12.0293 25.4511 12.0293 25.9682V27.0623C12.0293 27.5794 12.45 28.0001 12.9671 28.0001H27.0336C27.5507 28.0001 27.9713 27.5794 27.9713 27.0623V25.9682C27.9713 25.4511 27.5507 25.0305 27.0336 25.0305H26.4709V17.966H27.0336V17.9659ZM27.0336 25.9682C27.0342 27.0873 27.0367 27.0622 27.0336 27.0622H12.9671V25.9682H27.0336ZM14.4675 25.0304V17.9659H15.5303V25.0304H14.4675ZM16.4681 25.0304V17.9659H18.5312V25.0304H16.4681ZM19.469 25.0304V17.9659H20.5318V25.0304H19.469ZM21.4695 25.0304V17.9659H23.5326V25.0304H21.4695ZM24.4704 25.0304V17.9659H25.5332V25.0304H24.4704ZM12.9671 17.0281C12.9671 15.7202 12.9657 15.8145 12.9704 15.8126L20.0004 12.9381L27.0303 15.8126C27.0352 15.8145 27.0336 15.7232 27.0336 17.0281C26.8778 17.0281 13.1523 17.0281 12.9671 17.0281Z" fill="#2B231C"/>
<path d="M20.0001 14.0273C19.7412 14.0273 19.5312 14.2373 19.5312 14.4962V15.4965C19.5312 15.7555 19.7412 15.9654 20.0001 15.9654C20.2591 15.9654 20.469 15.7555 20.469 15.4965V14.4962C20.469 14.2373 20.2591 14.0273 20.0001 14.0273Z" fill="#2B231C"/>
</g>
<defs>
<clipPath id="clip0_322_694">
<rect width="16" height="16" fill="white" transform="translate(12 12)"/>
</clipPath>
</defs>
</svg>
