<svg width="40" height="40" viewBox="0 0 40 40" fill="none" xmlns="http://www.w3.org/2000/svg">
<rect x="0.25" y="0.25" width="39.5" height="39.5" rx="19.75" fill="#FFFCF9"/>
<rect x="0.25" y="0.25" width="39.5" height="39.5" rx="19.75" stroke="#2B231C" stroke-width="0.5"/>
<g clip-path="url(#clip0_322_700)">
<path d="M12.5572 16.8357C12.865 16.8357 13.1145 16.5862 13.1145 16.2785V13.9026L16.7034 17.4908C16.8123 17.5996 16.9548 17.654 17.0974 17.654C17.2401 17.654 17.3827 17.5996 17.4915 17.4907C17.7091 17.2731 17.7091 16.9203 17.4914 16.7027L13.9023 13.1145H16.2787C16.5865 13.1145 16.836 12.865 16.836 12.5572C16.836 12.2495 16.5865 12 16.2787 12H12.5572C12.2494 12 12 12.2495 12 12.5572V16.2786C12 16.5862 12.2494 16.8357 12.5572 16.8357Z" fill="#2B231C"/>
<path d="M27.4433 23.1638C27.1355 23.1638 26.8861 23.4133 26.8861 23.7211V26.097L23.1866 22.3976C22.9689 22.18 22.6162 22.18 22.3986 22.3976C22.1809 22.6152 22.1809 22.968 22.3986 23.1856L26.0979 26.8849H23.7221C23.4143 26.8849 23.1649 27.1344 23.1649 27.4422C23.1649 27.7499 23.4143 27.9994 23.7221 27.9994H27.4434C27.7512 27.9994 28.0006 27.7499 28.0006 27.4422V23.7211C28.0005 23.4133 27.751 23.1638 27.4433 23.1638Z" fill="#2B231C"/>
<path d="M16.8145 22.3976L13.1154 26.097V23.7211C13.1154 23.4133 12.866 23.1638 12.5582 23.1638C12.2504 23.1638 12.001 23.4133 12.001 23.7211V27.4423C12.001 27.7501 12.2504 27.9996 12.5582 27.9996H16.2793C16.5871 27.9996 16.8366 27.7501 16.8366 27.4423C16.8366 27.1346 16.5871 26.8851 16.2793 26.8851H13.9034L17.6026 23.1856C17.8202 22.968 17.8202 22.6151 17.6025 22.3975C17.385 22.18 17.0322 22.18 16.8145 22.3976Z" fill="#2B231C"/>
<path d="M27.4426 12H23.7214C23.4136 12 23.1641 12.2495 23.1641 12.5572C23.1641 12.865 23.4136 13.1145 23.7214 13.1145H26.0973L22.5089 16.7031C22.2913 16.9207 22.2913 17.2736 22.509 17.4912C22.6178 17.6 22.7604 17.6543 22.903 17.6543C23.0456 17.6543 23.1882 17.5999 23.2971 17.4911L26.8855 13.9025V16.2785C26.8855 16.5862 27.1349 16.8357 27.4427 16.8357C27.7505 16.8357 27.9999 16.5862 27.9999 16.2785V12.5572C27.9999 12.2494 27.7504 12 27.4426 12Z" fill="#2B231C"/>
</g>
<defs>
<clipPath id="clip0_322_700">
<rect width="16" height="16" fill="white" transform="translate(12 12)"/>
</clipPath>
</defs>
</svg>
