<svg width="40" height="40" viewBox="0 0 40 40" fill="none" xmlns="http://www.w3.org/2000/svg">
<rect x="0.25" y="0.25" width="39.5" height="39.5" rx="19.75" fill="#FFFCF9"/>
<rect x="0.25" y="0.25" width="39.5" height="39.5" rx="19.75" stroke="#2B231C" stroke-width="0.5"/>
<path d="M25 21.125C24.553 21.125 24.1422 21.2825 23.8197 21.5445L21.834 20.3896C21.8607 20.2639 21.875 20.1336 21.875 20C21.875 19.8664 21.8607 19.7361 21.834 19.6103L23.8197 18.4555C24.1422 18.7175 24.553 18.875 25 18.875C26.0339 18.875 26.875 18.0339 26.875 17C26.875 15.9661 26.0339 15.125 25 15.125C24.5592 15.125 24.1538 15.2783 23.8333 15.5338L21.8301 14.2817C21.8592 14.1507 21.875 14.0147 21.875 13.875C21.875 12.8411 21.0339 12 20 12C18.9661 12 18.125 12.8411 18.125 13.875C18.125 14.0147 18.1408 14.1507 18.1699 14.2817L16.1667 15.5338C15.8462 15.2783 15.4408 15.125 15 15.125C13.9661 15.125 13.125 15.9661 13.125 17C13.125 18.0339 13.9661 18.875 15 18.875C15.447 18.875 15.8578 18.7175 16.1803 18.4555L18.166 19.6104C18.1393 19.7361 18.125 19.8664 18.125 20C18.125 20.1336 18.1393 20.2639 18.166 20.3897L16.1803 21.5445C15.8578 21.2825 15.447 21.125 15 21.125C13.9661 21.125 13.125 21.9661 13.125 23C13.125 24.0339 13.9661 24.875 15 24.875C15.4408 24.875 15.8462 24.7217 16.1667 24.4662L18.1699 25.7183C18.1408 25.8493 18.125 25.9853 18.125 26.125C18.125 27.1589 18.9661 28 20 28C21.0339 28 21.875 27.1589 21.875 26.125C21.875 25.0911 21.0339 24.25 20 24.25C19.5592 24.25 19.1538 24.4033 18.8333 24.6588L16.8301 23.4067C16.8592 23.2757 16.875 23.1397 16.875 23C16.875 22.8664 16.8607 22.7361 16.834 22.6103L18.8197 21.4555C19.1422 21.7175 19.553 21.875 20 21.875C20.447 21.875 20.8578 21.7175 21.1803 21.4555L23.166 22.6104C23.1393 22.7361 23.125 22.8664 23.125 23C23.125 24.0339 23.9661 24.875 25 24.875C26.0339 24.875 26.875 24.0339 26.875 23C26.875 21.9661 26.0339 21.125 25 21.125ZM18.8197 18.5445L16.834 17.3896C16.8607 17.2639 16.875 17.1336 16.875 17C16.875 16.8603 16.8592 16.7243 16.8301 16.5932L18.8333 15.3412C19.1538 15.5967 19.5592 15.75 20 15.75C20.4408 15.75 20.8462 15.5967 21.1667 15.3412L23.1699 16.5932C23.1408 16.7243 23.125 16.8603 23.125 17C23.125 17.1336 23.1393 17.2639 23.166 17.3897L21.1803 18.5445C20.8578 18.2825 20.447 18.125 20 18.125C19.553 18.125 19.1422 18.2825 18.8197 18.5445ZM25.625 17C25.625 17.3446 25.3446 17.625 25 17.625C24.6554 17.625 24.375 17.3446 24.375 17C24.375 16.6554 24.6554 16.375 25 16.375C25.3446 16.375 25.625 16.6554 25.625 17ZM20 13.25C20.3446 13.25 20.625 13.5304 20.625 13.875C20.625 14.2196 20.3446 14.5 20 14.5C19.6554 14.5 19.375 14.2196 19.375 13.875C19.375 13.5304 19.6554 13.25 20 13.25ZM14.375 17C14.375 16.6554 14.6554 16.375 15 16.375C15.3446 16.375 15.625 16.6554 15.625 17C15.625 17.3446 15.3446 17.625 15 17.625C14.6554 17.625 14.375 17.3446 14.375 17ZM14.375 23C14.375 22.6554 14.6554 22.375 15 22.375C15.3446 22.375 15.625 22.6554 15.625 23C15.625 23.3446 15.3446 23.625 15 23.625C14.6554 23.625 14.375 23.3446 14.375 23ZM20.625 26.125C20.625 26.4696 20.3446 26.75 20 26.75C19.6554 26.75 19.375 26.4696 19.375 26.125C19.375 25.7804 19.6554 25.5 20 25.5C20.3446 25.5 20.625 25.7804 20.625 26.125ZM19.375 20C19.375 19.6554 19.6554 19.375 20 19.375C20.3446 19.375 20.625 19.6554 20.625 20C20.625 20.3446 20.3446 20.625 20 20.625C19.6554 20.625 19.375 20.3446 19.375 20ZM25 23.625C24.6554 23.625 24.375 23.3446 24.375 23C24.375 22.6554 24.6554 22.375 25 22.375C25.3446 22.375 25.625 22.6554 25.625 23C25.625 23.3446 25.3446 23.625 25 23.625Z" fill="#180F08"/>
</svg>
