<svg width="40" height="40" viewBox="0 0 40 40" fill="none" xmlns="http://www.w3.org/2000/svg">
<rect x="0.25" y="0.25" width="39.5" height="39.5" rx="19.75" fill="#FFFCF9"/>
<rect x="0.25" y="0.25" width="39.5" height="39.5" rx="19.75" stroke="#2B231C" stroke-width="0.5"/>
<path d="M27.9879 14.0617C28.1579 14.0617 28.2955 13.924 28.2955 13.7541V12.013C28.2955 10.3516 26.9439 9 25.2825 9H13.7161C12.0548 9 10.7031 10.3516 10.7031 12.013V26.9854C10.7031 27.1552 10.8409 27.293 11.0107 27.293C11.1806 27.293 11.3184 27.1552 11.3184 26.9854V12.013C11.3184 10.6909 12.394 9.61523 13.7161 9.61523H14.7316L14.7332 9.61532C16.0905 9.61532 17.1948 10.7195 17.1948 12.0768V16.8662C17.1948 18.6497 18.6458 20.1008 20.4293 20.1008H23.818C23.7669 20.1557 23.7354 20.2291 23.7354 20.3099V20.9995C23.7354 21.1693 23.8731 21.3071 24.043 21.3071C24.213 21.3071 24.3507 21.1693 24.3507 20.9995V20.3099C24.3507 20.2291 24.3192 20.1557 24.2681 20.1008H25.2186C26.576 20.1008 27.6802 21.205 27.6802 22.5623L27.6804 22.5647V26.9874C27.6804 28.3093 26.6047 29.3848 25.2826 29.3848H13.7161C12.394 29.3848 11.3184 28.3093 11.3184 26.9874V25.5908C11.3184 25.4209 11.1806 25.2832 11.0107 25.2832C10.8409 25.2832 10.7031 25.4209 10.7031 25.5908V26.9874C10.7031 28.6485 12.0548 30 13.7161 30H25.2825C26.9439 30 28.2955 28.6485 28.2955 26.9874V12.3596C28.2955 12.1897 28.1579 12.052 27.9879 12.052C27.818 12.052 27.6803 12.1897 27.6803 12.3596V20.7187C27.5608 20.5594 17.0166 10.0171 17.0166 10.0171C16.8833 9.86953 16.7361 9.73479 16.5768 9.61523H25.2825C26.6047 9.61523 27.6803 10.6909 27.6803 12.013V13.7541C27.6803 13.924 27.818 14.0617 27.9879 14.0617ZM25.6452 19.5157C25.5056 19.4963 25.3634 19.4855 25.2186 19.4855H20.4292C18.9849 19.4855 17.8099 18.3105 17.8099 16.8662V12.0768C17.8099 11.932 17.7991 11.7898 17.7797 11.6503L25.6452 19.5157Z" fill="#180F08"/>
<path d="M14.6475 16.6783C14.6475 16.8482 14.7852 16.9859 14.9551 16.9859C15.125 16.9859 15.2627 16.8482 15.2627 16.6783V15.9888C15.2627 15.8189 15.125 15.6812 14.9551 15.6812C14.7852 15.6812 14.6475 15.8189 14.6475 15.9888V16.6783Z" fill="#180F08"/>
<path d="M14.6475 18.6905C14.6475 18.8604 14.7852 18.9981 14.9551 18.9981C15.125 18.9981 15.2627 18.8604 15.2627 18.6905V18.001C15.2627 17.8311 15.125 17.6934 14.9551 17.6934C14.7852 17.6934 14.6475 17.8311 14.6475 18.001V18.6905Z" fill="#180F08"/>
<path d="M15.6162 17.647H16.3057C16.4756 17.647 16.6133 17.5092 16.6133 17.3394C16.6133 17.1695 16.4756 17.0317 16.3057 17.0317H15.6162C15.4463 17.0317 15.3086 17.1695 15.3086 17.3394C15.3086 17.5092 15.4463 17.647 15.6162 17.647Z" fill="#180F08"/>
<path d="M13.6045 17.647H14.294C14.4639 17.647 14.6016 17.5092 14.6016 17.3394C14.6016 17.1695 14.4639 17.0317 14.294 17.0317H13.6045C13.4346 17.0317 13.2969 17.1695 13.2969 17.3394C13.2969 17.5092 13.4346 17.647 13.6045 17.647Z" fill="#180F08"/>
<path d="M14.9551 12.6651C15.125 12.6651 15.2627 12.5274 15.2627 12.3575V11.668C15.2627 11.4981 15.125 11.3604 14.9551 11.3604C14.7852 11.3604 14.6475 11.4981 14.6475 11.668V12.3575C14.6475 12.5274 14.7852 12.6651 14.9551 12.6651Z" fill="#180F08"/>
<path d="M14.6475 14.3692C14.6475 14.5391 14.7852 14.6768 14.9551 14.6768C15.125 14.6768 15.2627 14.5391 15.2627 14.3692V13.6797C15.2627 13.5098 15.125 13.3721 14.9551 13.3721C14.7852 13.3721 14.6475 13.5098 14.6475 13.6797V14.3692Z" fill="#180F08"/>
<path d="M15.6162 13.3262H16.3057C16.4756 13.3262 16.6133 13.1884 16.6133 13.0186C16.6133 12.8487 16.4756 12.7109 16.3057 12.7109H15.6162C15.4463 12.7109 15.3086 12.8487 15.3086 13.0186C15.3086 13.1884 15.4463 13.3262 15.6162 13.3262Z" fill="#180F08"/>
<path d="M13.6045 13.3262H14.294C14.4639 13.3262 14.6016 13.1884 14.6016 13.0186C14.6016 12.8487 14.4639 12.7109 14.294 12.7109H13.6045C13.4346 12.7109 13.2969 12.8487 13.2969 13.0186C13.2969 13.1884 13.4346 13.3262 13.6045 13.3262Z" fill="#180F08"/>
<path d="M14.6475 20.9996C14.6475 21.1695 14.7852 21.3072 14.9551 21.3072C15.125 21.3072 15.2627 21.1695 15.2627 20.9996V20.3101C15.2627 20.1402 15.125 20.0024 14.9551 20.0024C14.7852 20.0024 14.6475 20.1402 14.6475 20.3101V20.9996Z" fill="#180F08"/>
<path d="M14.6475 23.0108C14.6475 23.1807 14.7852 23.3184 14.9551 23.3184C15.125 23.3184 15.2627 23.1807 15.2627 23.0108V22.3213C15.2627 22.1514 15.125 22.0137 14.9551 22.0137C14.7852 22.0137 14.6475 22.1514 14.6475 22.3213V23.0108Z" fill="#180F08"/>
<path d="M15.6162 21.9683H16.3057C16.4756 21.9683 16.6133 21.8305 16.6133 21.6606C16.6133 21.4908 16.4756 21.353 16.3057 21.353H15.6162C15.4463 21.353 15.3086 21.4908 15.3086 21.6606C15.3086 21.8305 15.4463 21.9683 15.6162 21.9683Z" fill="#180F08"/>
<path d="M13.6045 21.9683H14.294C14.4639 21.9683 14.6016 21.8305 14.6016 21.6606C14.6016 21.4908 14.4639 21.353 14.294 21.353H13.6045C13.4346 21.353 13.2969 21.4908 13.2969 21.6606C13.2969 21.8305 13.4346 21.9683 13.6045 21.9683Z" fill="#180F08"/>
<path d="M19.499 21.3072C19.6689 21.3072 19.8066 21.1695 19.8066 20.9996V20.3101C19.8066 20.1402 19.669 20.0024 19.499 20.0024C19.3291 20.0024 19.1914 20.1402 19.1914 20.3101V20.9996C19.1914 21.1695 19.3291 21.3072 19.499 21.3072Z" fill="#180F08"/>
<path d="M19.1914 23.0108C19.1914 23.1807 19.3291 23.3184 19.499 23.3184C19.6689 23.3184 19.8066 23.1807 19.8066 23.0108V22.3213C19.8066 22.1514 19.669 22.0137 19.499 22.0137C19.3291 22.0137 19.1914 22.1514 19.1914 22.3213V23.0108Z" fill="#180F08"/>
<path d="M20.1611 21.9683H20.8506C21.0206 21.9683 21.1583 21.8305 21.1583 21.6606C21.1583 21.4908 21.0206 21.353 20.8506 21.353H20.1611C19.9912 21.353 19.8535 21.4908 19.8535 21.6606C19.8535 21.8305 19.9912 21.9683 20.1611 21.9683Z" fill="#180F08"/>
<path d="M18.1484 21.9683H18.838C19.0078 21.9683 19.1456 21.8305 19.1456 21.6606C19.1456 21.4908 19.0078 21.353 18.838 21.353H18.1484C17.9786 21.353 17.8408 21.4908 17.8408 21.6606C17.8408 21.8305 17.9786 21.9683 18.1484 21.9683Z" fill="#180F08"/>
<path d="M24.043 23.3184C24.2129 23.3184 24.3506 23.1807 24.3506 23.0108V22.3213C24.3506 22.1514 24.2129 22.0137 24.043 22.0137C23.873 22.0137 23.7354 22.1514 23.7354 22.3213V23.0108C23.7354 23.1807 23.8731 23.3184 24.043 23.3184Z" fill="#180F08"/>
<path d="M24.7041 21.9683H25.3936C25.5635 21.9683 25.7012 21.8305 25.7012 21.6606C25.7012 21.4908 25.5635 21.353 25.3936 21.353H24.7041C24.5342 21.353 24.3965 21.4908 24.3965 21.6606C24.3965 21.8305 24.5342 21.9683 24.7041 21.9683Z" fill="#180F08"/>
<path d="M22.6924 21.9683H23.3819C23.5518 21.9683 23.6895 21.8305 23.6895 21.6606C23.6895 21.4908 23.5518 21.353 23.3819 21.353H22.6924C22.5225 21.353 22.3848 21.4908 22.3848 21.6606C22.3848 21.8305 22.5225 21.9683 22.6924 21.9683Z" fill="#180F08"/>
<path d="M14.6475 25.3204C14.6475 25.4903 14.7852 25.628 14.9551 25.628C15.125 25.628 15.2627 25.4903 15.2627 25.3204V24.6309C15.2627 24.461 15.125 24.3232 14.9551 24.3232C14.7852 24.3232 14.6475 24.461 14.6475 24.6309V25.3204Z" fill="#180F08"/>
<path d="M14.6475 27.3321C14.6475 27.502 14.7852 27.6397 14.9551 27.6397C15.125 27.6397 15.2627 27.502 15.2627 27.3321V26.6426C15.2627 26.4727 15.125 26.335 14.9551 26.335C14.7852 26.335 14.6475 26.4727 14.6475 26.6426V27.3321Z" fill="#180F08"/>
<path d="M15.6162 26.2896H16.3057C16.4756 26.2896 16.6133 26.1518 16.6133 25.9819C16.6133 25.812 16.4756 25.6743 16.3057 25.6743H15.6162C15.4463 25.6743 15.3086 25.812 15.3086 25.9819C15.3086 26.1518 15.4463 26.2896 15.6162 26.2896Z" fill="#180F08"/>
<path d="M13.6045 26.2896H14.294C14.4639 26.2896 14.6016 26.1518 14.6016 25.9819C14.6016 25.812 14.4639 25.6743 14.294 25.6743H13.6045C13.4346 25.6743 13.2969 25.812 13.2969 25.9819C13.2969 26.1518 13.4346 26.2896 13.6045 26.2896Z" fill="#180F08"/>
<path d="M19.1914 25.3204C19.1914 25.4903 19.3291 25.628 19.499 25.628C19.6689 25.628 19.8066 25.4903 19.8066 25.3204V24.6309C19.8066 24.461 19.669 24.3232 19.499 24.3232C19.3291 24.3232 19.1914 24.461 19.1914 24.6309V25.3204Z" fill="#180F08"/>
<path d="M19.1914 27.3321C19.1914 27.502 19.3291 27.6397 19.499 27.6397C19.6689 27.6397 19.8066 27.502 19.8066 27.3321V26.6426C19.8066 26.4727 19.669 26.335 19.499 26.335C19.3291 26.335 19.1914 26.4727 19.1914 26.6426V27.3321Z" fill="#180F08"/>
<path d="M20.1611 26.2896H20.8506C21.0206 26.2896 21.1583 26.1518 21.1583 25.9819C21.1583 25.812 21.0206 25.6743 20.8506 25.6743H20.1611C19.9912 25.6743 19.8535 25.812 19.8535 25.9819C19.8535 26.1518 19.9912 26.2896 20.1611 26.2896Z" fill="#180F08"/>
<path d="M18.1484 26.2896H18.838C19.0078 26.2896 19.1456 26.1518 19.1456 25.9819C19.1456 25.812 19.0078 25.6743 18.838 25.6743H18.1484C17.9786 25.6743 17.8408 25.812 17.8408 25.9819C17.8408 26.1518 17.9786 26.2896 18.1484 26.2896Z" fill="#180F08"/>
<path d="M23.7354 25.3204C23.7354 25.4903 23.873 25.628 24.043 25.628C24.2129 25.628 24.3506 25.4903 24.3506 25.3204V24.6309C24.3506 24.461 24.2129 24.3232 24.043 24.3232C23.873 24.3232 23.7354 24.461 23.7354 24.6309V25.3204Z" fill="#180F08"/>
<path d="M23.7354 27.3321C23.7354 27.502 23.873 27.6397 24.043 27.6397C24.2129 27.6397 24.3506 27.502 24.3506 27.3321V26.6426C24.3506 26.4727 24.2129 26.335 24.043 26.335C23.873 26.335 23.7354 26.4727 23.7354 26.6426V27.3321Z" fill="#180F08"/>
<path d="M24.7041 26.2896H25.3936C25.5635 26.2896 25.7012 26.1518 25.7012 25.9819C25.7012 25.812 25.5635 25.6743 25.3936 25.6743H24.7041C24.5342 25.6743 24.3965 25.812 24.3965 25.9819C24.3965 26.1518 24.5342 26.2896 24.7041 26.2896Z" fill="#180F08"/>
<path d="M22.6924 26.2896H23.3819C23.5518 26.2896 23.6895 26.1518 23.6895 25.9819C23.6895 25.812 23.5518 25.6743 23.3819 25.6743H22.6924C22.5225 25.6743 22.3848 25.812 22.3848 25.9819C22.3848 26.1518 22.5225 26.2896 22.6924 26.2896Z" fill="#180F08"/>
</svg>
