<svg width="556" height="480" viewBox="0 0 556 480" fill="none" xmlns="http://www.w3.org/2000/svg">
<ellipse cx="278.164" cy="263" rx="277.5" ry="217" fill="url(#paint0_radial_276_2491)"/>
<g filter="url(#filter0_ii_276_2491)">
<path d="M62.1884 247.017C44.0954 213.688 142.75 137.697 190.363 124.175C170.251 145.201 136.275 218.259 121.8 252.159C102.564 259.206 73.2348 263.396 62.1884 247.017Z" fill="url(#paint1_linear_276_2491)"/>
</g>
<g filter="url(#filter1_i_276_2491)">
<path d="M307.379 16.5805C299.383 7.92749 285.588 7.82819 277.516 16.4099C214.999 82.8709 119.422 167.911 119.422 269.723C119.422 369.201 198.881 441.47 292.544 441.47C386.217 441.47 465.665 369.212 465.665 269.723C465.665 168.053 368.493 82.7146 307.379 16.5805Z" fill="url(#paint2_linear_276_2491)"/>
<path d="M307.379 16.5805C299.383 7.92749 285.588 7.82819 277.516 16.4099C214.999 82.8709 119.422 167.911 119.422 269.723C119.422 369.201 198.881 441.47 292.544 441.47C386.217 441.47 465.665 369.212 465.665 269.723C465.665 168.053 368.493 82.7146 307.379 16.5805Z" fill="url(#paint3_linear_276_2491)" fill-opacity="0.8"/>
</g>
<path d="M435.193 16.1455C425.29 5.86147 365.17 36.8414 341.49 51.3793L387.199 113.657L413.291 74.0432C427.765 51.9511 440.526 23.7636 435.193 16.1455Z" fill="url(#paint4_linear_276_2491)"/>
<path d="M124.753 313.676C111.955 279.547 84.5678 259.842 72.7598 255.017C112.945 259.588 116.183 252.731 135.228 245.685C154.274 238.638 185.317 201.309 215.219 221.688C239.216 241.494 230.645 243.59 242.263 341.482C251.557 419.797 322.063 432.265 356.154 428.71V432.329C342.328 437.615 326.669 440.104 303.135 441.099C281.301 442.023 259.218 439.978 238.548 432.886C157.598 405.115 139.047 351.793 124.753 313.676Z" fill="url(#paint5_linear_276_2491)"/>
<g filter="url(#filter2_i_276_2491)">
<mask id="mask0_276_2491" style="mask-type:alpha" maskUnits="userSpaceOnUse" x="72" y="215" width="285" height="227">
<path d="M124.755 313.676C111.957 279.547 84.5698 259.842 72.7617 255.017C112.947 259.588 116.185 252.731 135.23 245.685C154.276 238.638 185.319 201.309 215.221 221.688C239.218 241.494 230.647 243.59 242.265 341.482C251.559 419.797 322.065 432.265 356.156 428.71V432.329C342.33 437.615 326.671 440.104 303.137 441.099C281.303 442.023 259.22 439.978 238.55 432.886C157.6 405.115 139.049 351.793 124.755 313.676Z" fill="url(#paint6_linear_276_2491)"/>
</mask>
<g mask="url(#mask0_276_2491)">
<path d="M172.939 329.103C146.885 312.8 136.436 331.071 134.468 342.244L65.9046 294.821L55.8105 248.922L96.5675 227.02L194.651 200.547L245.502 211.212V307.391L301.495 396.142L367.582 419.377L383.199 450.04L345.489 490.988L230.837 435.947C222.393 407.125 198.993 345.405 172.939 329.103Z" fill="white" fill-opacity="0.29"/>
</g>
</g>
<g filter="url(#filter3_i_276_2491)">
<path d="M411.957 394.999C393.737 409.537 349.793 427.034 319.778 380.715C282.259 322.818 323.206 189.31 402.816 89.3224C420.432 63.2631 429.604 47.3017 433.643 36.2862C436.114 28.2622 436.394 23.4734 436.043 20.3948C435.826 18.9284 435.468 17.5429 435.002 16.1885C435.336 17.1574 435.818 18.4266 436.043 20.3948C436.668 24.6221 436.124 29.5216 433.643 36.2862C431.795 42.2906 428.72 50.1067 423.765 60.3736C408.377 95.7216 414.687 135.285 420.528 151.791C433.605 161.758 462.473 207.403 465.284 262.825C468.484 325.903 431.066 377.224 411.957 394.999Z" fill="url(#paint7_linear_276_2491)"/>
</g>
<g filter="url(#filter4_ii_276_2491)">
<mask id="mask1_276_2491" style="mask-type:alpha" maskUnits="userSpaceOnUse" x="305" y="16" width="161" height="395">
<path d="M411.957 394.998C393.737 409.536 349.793 427.033 319.778 380.714C282.259 322.817 323.206 189.309 402.816 89.3214C420.432 63.2621 429.604 47.3007 433.643 36.2852C436.114 28.2612 436.394 23.4725 436.043 20.3938C435.826 18.9274 435.468 17.5419 435.002 16.1875C435.336 17.1564 435.818 18.4257 436.043 20.3938C436.668 24.6212 436.124 29.5206 433.643 36.2852C431.795 42.2896 428.72 50.1057 423.765 60.3726C408.377 95.7206 414.687 135.284 420.528 151.79C433.605 161.757 462.473 207.402 465.284 262.824C468.484 325.902 431.066 377.223 411.957 394.998Z" fill="url(#paint8_linear_276_2491)"/>
</mask>
<g mask="url(#mask1_276_2491)">
<path d="M389.675 332.72C391.808 383.304 414.307 381.983 425.29 375L438.812 407.187L429.099 430.231L382.247 463.751L315.398 433.85L293.496 368.906V246.254L354.251 94.4629L433.86 38.4697C449.287 79.1632 474.503 166.187 451.953 188.737C423.766 216.924 387.008 269.489 389.675 332.72Z" fill="url(#paint9_linear_276_2491)"/>
</g>
</g>
<g filter="url(#filter5_di_276_2491)">
<ellipse cx="225.955" cy="139.05" rx="11.5609" ry="15.8076" transform="rotate(28.4604 225.955 139.05)" fill="white" fill-opacity="0.3" shape-rendering="crispEdges"/>
</g>
<defs>
<filter id="filter0_ii_276_2491" x="48.5728" y="124.175" width="149.409" height="134.201" filterUnits="userSpaceOnUse" color-interpolation-filters="sRGB">
<feFlood flood-opacity="0" result="BackgroundImageFix"/>
<feBlend mode="normal" in="SourceGraphic" in2="BackgroundImageFix" result="shape"/>
<feColorMatrix in="SourceAlpha" type="matrix" values="0 0 0 0 0 0 0 0 0 0 0 0 0 0 0 0 0 0 127 0" result="hardAlpha"/>
<feOffset dx="-11.4272"/>
<feGaussianBlur stdDeviation="11.4272"/>
<feComposite in2="hardAlpha" operator="arithmetic" k2="-1" k3="1"/>
<feColorMatrix type="matrix" values="0 0 0 0 0.296651 0 0 0 0 0.742395 0 0 0 0 0.720108 0 0 0 1 0"/>
<feBlend mode="normal" in2="shape" result="effect1_innerShadow_276_2491"/>
<feColorMatrix in="SourceAlpha" type="matrix" values="0 0 0 0 0 0 0 0 0 0 0 0 0 0 0 0 0 0 127 0" result="hardAlpha"/>
<feOffset dx="7.61812"/>
<feGaussianBlur stdDeviation="5.71359"/>
<feComposite in2="hardAlpha" operator="arithmetic" k2="-1" k3="1"/>
<feColorMatrix type="matrix" values="0 0 0 0 1 0 0 0 0 1 0 0 0 0 1 0 0 0 0.55 0"/>
<feBlend mode="normal" in2="effect1_innerShadow_276_2491" result="effect2_innerShadow_276_2491"/>
</filter>
<filter id="filter1_i_276_2491" x="96.5675" y="10.0322" width="369.098" height="431.438" filterUnits="userSpaceOnUse" color-interpolation-filters="sRGB">
<feFlood flood-opacity="0" result="BackgroundImageFix"/>
<feBlend mode="normal" in="SourceGraphic" in2="BackgroundImageFix" result="shape"/>
<feColorMatrix in="SourceAlpha" type="matrix" values="0 0 0 0 0 0 0 0 0 0 0 0 0 0 0 0 0 0 127 0" result="hardAlpha"/>
<feOffset dx="-22.8544"/>
<feGaussianBlur stdDeviation="20.9498"/>
<feComposite in2="hardAlpha" operator="arithmetic" k2="-1" k3="1"/>
<feColorMatrix type="matrix" values="0 0 0 0 1 0 0 0 0 1 0 0 0 0 1 0 0 0 0.25 0"/>
<feBlend mode="normal" in2="shape" result="effect1_innerShadow_276_2491"/>
</filter>
<filter id="filter2_i_276_2491" x="72.7617" y="215.669" width="283.395" height="227.162" filterUnits="userSpaceOnUse" color-interpolation-filters="sRGB">
<feFlood flood-opacity="0" result="BackgroundImageFix"/>
<feBlend mode="normal" in="SourceGraphic" in2="BackgroundImageFix" result="shape"/>
<feColorMatrix in="SourceAlpha" type="matrix" values="0 0 0 0 0 0 0 0 0 0 0 0 0 0 0 0 0 0 127 0" result="hardAlpha"/>
<feOffset dy="7.61812"/>
<feGaussianBlur stdDeviation="0.761812"/>
<feComposite in2="hardAlpha" operator="arithmetic" k2="-1" k3="1"/>
<feColorMatrix type="matrix" values="0 0 0 0 1 0 0 0 0 1 0 0 0 0 1 0 0 0 0.25 0"/>
<feBlend mode="normal" in2="shape" result="effect1_innerShadow_276_2491"/>
</filter>
<filter id="filter3_i_276_2491" x="305.723" y="16.1885" width="190.226" height="396.029" filterUnits="userSpaceOnUse" color-interpolation-filters="sRGB">
<feFlood flood-opacity="0" result="BackgroundImageFix"/>
<feBlend mode="normal" in="SourceGraphic" in2="BackgroundImageFix" result="shape"/>
<feColorMatrix in="SourceAlpha" type="matrix" values="0 0 0 0 0 0 0 0 0 0 0 0 0 0 0 0 0 0 127 0" result="hardAlpha"/>
<feOffset dx="91.4174" dy="1.52362"/>
<feGaussianBlur stdDeviation="15.2362"/>
<feComposite in2="hardAlpha" operator="arithmetic" k2="-1" k3="1"/>
<feColorMatrix type="matrix" values="0 0 0 0 0.423529 0 0 0 0 0.937255 0 0 0 0 0.911569 0 0 0 1 0"/>
<feBlend mode="normal" in2="shape" result="effect1_innerShadow_276_2491"/>
</filter>
<filter id="filter4_ii_276_2491" x="297.724" y="38.4697" width="165.868" height="374.89" filterUnits="userSpaceOnUse" color-interpolation-filters="sRGB">
<feFlood flood-opacity="0" result="BackgroundImageFix"/>
<feBlend mode="normal" in="SourceGraphic" in2="BackgroundImageFix" result="shape"/>
<feColorMatrix in="SourceAlpha" type="matrix" values="0 0 0 0 0 0 0 0 0 0 0 0 0 0 0 0 0 0 127 0" result="hardAlpha"/>
<feOffset dx="4.18996" dy="5.33268"/>
<feGaussianBlur stdDeviation="1.33317"/>
<feComposite in2="hardAlpha" operator="arithmetic" k2="-1" k3="1"/>
<feColorMatrix type="matrix" values="0 0 0 0 1 0 0 0 0 1 0 0 0 0 1 0 0 0 0.25 0"/>
<feBlend mode="normal" in2="shape" result="effect1_innerShadow_276_2491"/>
<feColorMatrix in="SourceAlpha" type="matrix" values="0 0 0 0 0 0 0 0 0 0 0 0 0 0 0 0 0 0 127 0" result="hardAlpha"/>
<feOffset dx="-7.99902"/>
<feGaussianBlur stdDeviation="15.2362"/>
<feComposite in2="hardAlpha" operator="arithmetic" k2="-1" k3="1"/>
<feColorMatrix type="matrix" values="0 0 0 0 1 0 0 0 0 1 0 0 0 0 1 0 0 0 0.25 0"/>
<feBlend mode="normal" in2="effect1_innerShadow_276_2491" result="effect2_innerShadow_276_2491"/>
</filter>
<filter id="filter5_di_276_2491" x="209.875" y="110.765" width="48.159" height="52.7616" filterUnits="userSpaceOnUse" color-interpolation-filters="sRGB">
<feFlood flood-opacity="0" result="BackgroundImageFix"/>
<feColorMatrix in="SourceAlpha" type="matrix" values="0 0 0 0 0 0 0 0 0 0 0 0 0 0 0 0 0 0 127 0" result="hardAlpha"/>
<feOffset dx="7.99902" dy="-1.90453"/>
<feGaussianBlur stdDeviation="5.71359"/>
<feComposite in2="hardAlpha" operator="out"/>
<feColorMatrix type="matrix" values="0 0 0 0 0.230678 0 0 0 0 0.686264 0 0 0 0 0.663485 0 0 0 0.2 0"/>
<feBlend mode="normal" in2="BackgroundImageFix" result="effect1_dropShadow_276_2491"/>
<feBlend mode="normal" in="SourceGraphic" in2="effect1_dropShadow_276_2491" result="shape"/>
<feColorMatrix in="SourceAlpha" type="matrix" values="0 0 0 0 0 0 0 0 0 0 0 0 0 0 0 0 0 0 127 0" result="hardAlpha"/>
<feOffset dy="7.61812"/>
<feGaussianBlur stdDeviation="0.761812"/>
<feComposite in2="hardAlpha" operator="arithmetic" k2="-1" k3="1"/>
<feColorMatrix type="matrix" values="0 0 0 0 1 0 0 0 0 1 0 0 0 0 1 0 0 0 0.25 0"/>
<feBlend mode="normal" in2="shape" result="effect2_innerShadow_276_2491"/>
</filter>
<radialGradient id="paint0_radial_276_2491" cx="0" cy="0" r="1" gradientUnits="userSpaceOnUse" gradientTransform="translate(278.164 263) rotate(90) scale(217 277.5)">
<stop offset="0.360593" stop-color="#69DDD0"/>
<stop offset="1" stop-color="#FFFCF9" stop-opacity="0"/>
</radialGradient>
<linearGradient id="paint1_linear_276_2491" x1="190.173" y1="124.365" x2="81.4243" y2="258.444" gradientUnits="userSpaceOnUse">
<stop stop-color="#2BD6CD"/>
<stop offset="1" stop-color="#C3E9D7"/>
</linearGradient>
<linearGradient id="paint2_linear_276_2491" x1="209.045" y1="107.786" x2="439.766" y2="370.111" gradientUnits="userSpaceOnUse">
<stop stop-color="#E7EBD7"/>
<stop offset="0.965" stop-color="#2AD2CA"/>
</linearGradient>
<linearGradient id="paint3_linear_276_2491" x1="292.544" y1="0" x2="292.353" y2="402.427" gradientUnits="userSpaceOnUse">
<stop stop-color="#DDE3C7"/>
<stop offset="1" stop-color="#62E3DD"/>
</linearGradient>
<linearGradient id="paint4_linear_276_2491" x1="434.431" y1="28.1445" x2="350.251" y2="61.0928" gradientUnits="userSpaceOnUse">
<stop stop-color="#F6E8D8"/>
<stop offset="1" stop-color="#91E6E2"/>
</linearGradient>
<linearGradient id="paint5_linear_276_2491" x1="156.178" y1="223.858" x2="262.07" y2="441.546" gradientUnits="userSpaceOnUse">
<stop stop-color="#A1E4D4"/>
<stop offset="1" stop-color="#2BD4CB"/>
</linearGradient>
<linearGradient id="paint6_linear_276_2491" x1="156.18" y1="223.858" x2="262.072" y2="441.546" gradientUnits="userSpaceOnUse">
<stop stop-color="#F7C2D2"/>
<stop offset="1" stop-color="#F3B5CA"/>
</linearGradient>
<linearGradient id="paint7_linear_276_2491" x1="440.144" y1="69.1344" x2="385.6" y2="410.694" gradientUnits="userSpaceOnUse">
<stop stop-color="#E5EBD7"/>
<stop offset="1" stop-color="#31DAD0"/>
</linearGradient>
<linearGradient id="paint8_linear_276_2491" x1="440.144" y1="69.1334" x2="385.6" y2="410.693" gradientUnits="userSpaceOnUse">
<stop stop-color="#DFF5F4"/>
<stop offset="1" stop-color="#ACEBE8"/>
</linearGradient>
<linearGradient id="paint9_linear_276_2491" x1="377.211" y1="38.4697" x2="377.211" y2="463.751" gradientUnits="userSpaceOnUse">
<stop stop-color="#F4EBD7" stop-opacity="0.4"/>
<stop offset="1" stop-color="#6EE2DB"/>
</linearGradient>
</defs>
</svg>
