<svg width="120" height="24" viewBox="0 0 120 24" fill="none" xmlns="http://www.w3.org/2000/svg">
<g clip-path="url(#clip0_463_740)">
<path fill-rule="evenodd" clip-rule="evenodd" d="M8.84395 0C8.84395 0 17.6878 8.46298 17.6878 15.1561C17.6878 20.0371 13.725 24 8.84395 24C3.96282 24 0 20.0371 0 15.1561C0 8.4632 8.84395 0 8.84395 0ZM14.3836 13.5127C12.4217 15.5846 9.53037 16.8951 6.30817 16.8951C5.26993 16.8951 4.26604 16.7591 3.31651 16.5054C3.98284 18.9324 6.20654 20.7177 8.84395 20.7177C12.0071 20.7177 14.5751 18.1497 14.5751 14.9864C14.5751 14.4771 14.5085 13.9832 14.3836 13.5127Z" fill="#2B231C"/>
<path d="M115.426 21.7495V6.29485H118.633V21.7495H115.426ZM117.029 4.54526C116.427 4.54526 115.931 4.36058 115.542 3.99123C115.173 3.60243 114.988 3.10671 114.988 2.50408C114.988 1.90144 115.173 1.41544 115.542 1.04609C115.931 0.657289 116.427 0.462891 117.029 0.462891C117.632 0.462891 118.118 0.657289 118.487 1.04609C118.876 1.41544 119.071 1.90144 119.071 2.50408C119.071 3.10671 118.876 3.60243 118.487 3.99123C118.118 4.36058 117.632 4.54526 117.029 4.54526Z" fill="#2B231C"/>
<path d="M106.232 21.7491V9.03539H104.19V6.29437H106.232V5.85698C106.232 4.82666 106.397 3.97131 106.727 3.29091C107.077 2.59108 107.631 2.0662 108.389 1.71628C109.148 1.36637 110.129 1.19141 111.335 1.19141C111.626 1.19141 111.957 1.20113 112.326 1.22057C112.695 1.22057 113.094 1.24001 113.522 1.27889V4.07823C113.23 4.03935 112.909 4.01991 112.559 4.01991C112.229 4.00047 111.918 3.99075 111.626 3.99075C110.81 3.99075 110.236 4.14627 109.906 4.4573C109.595 4.7489 109.439 5.26406 109.439 6.00277V6.29437H113.23V9.03539H109.439V21.7491H106.232Z" fill="#2B231C"/>
<path d="M100.391 22.0699C99.9637 22.0699 99.5652 21.9629 99.1958 21.7491C98.8459 21.5547 98.564 21.2826 98.3502 20.9326C98.1558 20.5633 98.0586 20.1648 98.0586 19.7371C98.0586 19.0567 98.2822 18.5026 98.7293 18.075C99.1764 17.6279 99.7304 17.4043 100.391 17.4043C101.052 17.4043 101.606 17.6279 102.053 18.075C102.501 18.5026 102.724 19.0567 102.724 19.7371C102.724 20.1648 102.617 20.5633 102.403 20.9326C102.209 21.2826 101.937 21.5547 101.587 21.7491C101.237 21.9629 100.838 22.0699 100.391 22.0699Z" fill="#2B231C"/>
<path d="M88.398 22.0695C87.0955 22.0695 85.9486 21.7779 84.9571 21.1947C83.9852 20.6115 83.227 19.7368 82.6827 18.5704C82.1384 17.3845 81.8662 15.9168 81.8662 14.1672V13.584C81.8662 11.9316 82.1384 10.5417 82.6827 9.41418C83.227 8.28667 83.9852 7.43131 84.9571 6.84812C85.9486 6.26492 87.0858 5.97332 88.3688 5.97332C89.5352 5.97332 90.5364 6.23576 91.3723 6.76064C92.2277 7.28551 92.8983 7.95619 93.3843 8.77267V1.33691H96.5919V21.7488H93.6176V19.1536C93.2677 19.9312 92.6165 20.6115 91.6639 21.1947C90.7308 21.7779 89.6422 22.0695 88.398 22.0695ZM89.127 19.2702C89.8852 19.2702 90.585 19.1147 91.2265 18.8036C91.868 18.4732 92.3832 17.9872 92.772 17.3456C93.1802 16.6847 93.3843 15.8682 93.3843 14.8962V12.8259C93.3843 11.9316 93.1802 11.1929 92.772 10.6097C92.3832 10.0071 91.8583 9.55026 91.1973 9.23922C90.5558 8.92818 89.8657 8.77267 89.127 8.77267C87.9023 8.77267 86.9303 9.17118 86.211 9.96822C85.4917 10.7458 85.1321 11.9511 85.1321 13.584V14.1672C85.1321 15.8779 85.5015 17.161 86.2402 18.0163C86.9789 18.8522 87.9412 19.2702 89.127 19.2702Z" fill="#2B231C"/>
<path d="M73.4077 22.0698C72.0469 22.0698 70.7931 21.788 69.6461 21.2242C68.4992 20.641 67.5758 19.7662 66.8759 18.5998C66.1761 17.4334 65.8262 15.956 65.8262 14.1675V13.5843C65.8262 11.8736 66.1566 10.4545 66.8176 9.32701C67.498 8.1995 68.3922 7.36358 69.5003 6.81927C70.6084 6.25551 71.8137 5.97363 73.1161 5.97363C75.4683 5.97363 77.2665 6.60543 78.5107 7.86902C79.7743 9.13261 80.4061 10.9405 80.4061 13.2927V14.9257H69.0921C69.131 15.9754 69.3545 16.8211 69.7627 17.4626C70.171 18.1041 70.6959 18.5707 71.3374 18.8623C71.9789 19.1344 72.669 19.2705 73.4077 19.2705C74.5158 19.2705 75.3225 19.0955 75.828 18.7456C76.3529 18.3957 76.7125 17.9389 76.9069 17.3751H80.1145C79.8034 18.9109 79.0356 20.0773 77.8109 20.8743C76.6056 21.6713 75.1379 22.0698 73.4077 22.0698ZM73.2619 8.77297C72.5426 8.77297 71.872 8.89933 71.2499 9.15205C70.6278 9.40477 70.1224 9.80329 69.7336 10.3476C69.3448 10.8919 69.131 11.6209 69.0921 12.5346H77.1985C77.1791 11.5626 76.9944 10.8044 76.6445 10.2601C76.2945 9.71581 75.828 9.33673 75.2448 9.12289C74.6616 8.88961 74.0006 8.77297 73.2619 8.77297Z" fill="#2B231C"/>
<path d="M50.6719 21.7491V6.29439H53.6462V8.88961C54.0155 8.11202 54.6182 7.43162 55.4541 6.84843C56.29 6.26523 57.3689 5.97363 58.6908 5.97363C60.5765 5.97363 61.9956 6.48879 62.9482 7.5191C63.9007 8.52998 64.377 10.0171 64.377 11.9806V21.7491H61.1694V12.7095C61.1694 11.4071 60.8972 10.4254 60.3529 9.76441C59.8086 9.10345 58.9144 8.77297 57.6702 8.77297C56.776 8.77297 56.047 8.96737 55.4832 9.35617C54.9389 9.72553 54.5307 10.2115 54.2585 10.8142C54.0058 11.3974 53.8795 12.0292 53.8795 12.7095V21.7491H50.6719Z" fill="#2B231C"/>
<path d="M45.5604 21.7495V6.29485H48.768V21.7495H45.5604ZM47.1642 4.54526C46.5616 4.54526 46.0659 4.36058 45.6771 3.99123C45.3077 3.60243 45.123 3.10671 45.123 2.50408C45.123 1.90144 45.3077 1.41544 45.6771 1.04609C46.0659 0.657289 46.5616 0.462891 47.1642 0.462891C47.7669 0.462891 48.2529 0.657289 48.6222 1.04609C49.011 1.41544 49.2054 1.90144 49.2054 2.50408C49.2054 3.10671 49.011 3.60243 48.6222 3.99123C48.2529 4.36058 47.7669 4.54526 47.1642 4.54526Z" fill="#2B231C"/>
<path d="M22.0869 21.7491V6.29439H25.0612V8.91877C25.4111 8.12174 25.9749 7.43162 26.7525 6.84843C27.5301 6.26523 28.4243 5.97363 29.4352 5.97363C30.7182 5.97363 31.7194 6.24579 32.4386 6.79011C33.1579 7.33442 33.6536 8.04398 33.9258 8.91877C34.3729 8.04398 34.995 7.33442 35.792 6.79011C36.6085 6.24579 37.5513 5.97363 38.6205 5.97363C40.234 5.97363 41.4782 6.44991 42.353 7.40246C43.2278 8.35502 43.6652 9.83245 43.6652 11.8348V21.7491H40.4576V12.5637C40.4576 11.1835 40.1952 10.2115 39.6703 9.64777C39.1648 9.06457 38.4747 8.77297 37.5999 8.77297C36.9001 8.77297 36.3169 8.93821 35.8503 9.26869C35.4032 9.57973 35.063 10.0268 34.8298 10.61C34.5965 11.1738 34.4798 11.825 34.4798 12.5637V21.7491H31.2723V12.5637C31.2723 11.1835 31.0098 10.2115 30.4849 9.64777C29.9795 9.06457 29.2894 8.77297 28.4146 8.77297C27.7148 8.77297 27.1316 8.93821 26.665 9.26869C26.2179 9.57973 25.8777 10.0268 25.6444 10.61C25.4111 11.1738 25.2945 11.825 25.2945 12.5637V21.7491H22.0869Z" fill="#2B231C"/>
</g>
<defs>
<clipPath id="clip0_463_740">
<rect width="119.07" height="24" fill="white"/>
</clipPath>
</defs>
</svg>
