<svg width="32" height="32" viewBox="0 0 32 32" fill="none" xmlns="http://www.w3.org/2000/svg">
<path d="M16 32C24.8366 32 32 24.8366 32 16C32 7.16344 24.8366 0 16 0C7.16344 0 0 7.16344 0 16C0 24.8366 7.16344 32 16 32Z" fill="#231F20"/>
<path fill-rule="evenodd" clip-rule="evenodd" d="M14.7777 19.8634C14.7782 19.8035 14.7659 19.7443 14.7416 19.6897C14.7173 19.635 14.6816 19.5862 14.6369 19.5464C14.5922 19.5067 14.5395 19.477 14.4824 19.4593C14.4253 19.4415 14.365 19.4362 14.3057 19.4437L11.106 20.0207C10.9717 20.0455 10.8506 20.1171 10.7642 20.2227C10.6778 20.3284 10.6316 20.4612 10.6339 20.5977V26.5775C10.6334 26.6373 10.6457 26.6965 10.67 26.7512C10.6943 26.8058 10.73 26.8547 10.7747 26.8944C10.8194 26.9341 10.8721 26.9639 10.9292 26.9816C10.9864 26.9993 11.0466 27.0046 11.106 26.9971L14.3057 26.4201C14.4355 26.3868 14.5514 26.3128 14.6363 26.209C14.7212 26.1052 14.7708 25.977 14.7777 25.8431V19.8634Z" fill="white"/>
<path fill-rule="evenodd" clip-rule="evenodd" d="M23.0667 6.38258C23.0692 6.32412 23.0576 6.26591 23.033 6.21281C23.0084 6.15972 22.9715 6.11327 22.9253 6.07735C22.8791 6.04142 22.825 6.01705 22.7675 6.00628C22.71 5.9955 22.6507 5.99863 22.5946 6.0154L19.3949 6.53994C19.2651 6.57329 19.1492 6.64724 19.0643 6.75103C18.9794 6.85482 18.9298 6.98302 18.9229 7.11694V13.1492C18.9224 13.209 18.9347 13.2682 18.959 13.3229C18.9833 13.3775 19.019 13.4263 19.0637 13.4661C19.1084 13.5058 19.1611 13.5355 19.2182 13.5533C19.2753 13.571 19.3356 13.5763 19.3949 13.5688L22.5946 12.9918C22.7245 12.9584 22.8404 12.8845 22.9253 12.7807C23.0102 12.6769 23.0598 12.5487 23.0667 12.4148V6.38258Z" fill="white"/>
<path fill-rule="evenodd" clip-rule="evenodd" d="M15.3033 7.79939C15.2374 7.66673 15.1301 7.55914 14.9976 7.49289C14.8651 7.42664 14.7146 7.40534 14.5689 7.43221L11.1594 8.0092C11.0972 8.02 11.0382 8.04473 10.9868 8.08152C10.9354 8.11832 10.893 8.16624 10.8628 8.22172C10.8325 8.27719 10.8152 8.33878 10.812 8.40189C10.8089 8.465 10.8201 8.528 10.8447 8.5862L18.3981 25.1617C18.4623 25.2988 18.5673 25.4127 18.6988 25.4878C18.8302 25.563 18.9817 25.5956 19.1324 25.5813L22.542 25.0043C22.6069 24.9893 22.6673 24.959 22.7182 24.916C22.7691 24.873 22.809 24.8184 22.8346 24.7569C22.8603 24.6954 22.8709 24.6287 22.8656 24.5622C22.8603 24.4958 22.8393 24.4316 22.8042 24.3749L15.3033 7.79939Z" fill="white"/>
</svg>
