<svg width="32" height="32" viewBox="0 0 32 32" fill="none" xmlns="http://www.w3.org/2000/svg">
<path d="M15.9997 0C11.7718 0.0123329 7.7217 1.70207 4.7387 4.69815C1.7557 7.69424 0.0836943 11.7517 0.0898607 15.9796C0.0960272 20.2074 1.77986 24.26 4.77159 27.2474C7.76331 30.2347 11.8183 31.9127 16.0462 31.9127C20.2741 31.9127 24.3291 30.2347 27.3208 27.2474C30.3126 24.26 31.9964 20.2074 32.0026 15.9796C32.0087 11.7517 30.3367 7.69424 27.3537 4.69815C24.3707 1.70207 20.3206 0.0123329 16.0928 0L15.9997 0Z" fill="#2B231C"/>
<path d="M17.685 28.2564L22.9192 29L25 15.5031L22.9192 2L17.685 2.74363L19.1777 12.4542L8.22456 4.36722L5 8.40142L14.609 15.5031L5 22.5986L8.22456 26.639L19.1777 18.5458L17.685 28.2564Z" fill="white"/>
</svg>
