<svg width="56" height="56" viewBox="0 0 56 56" fill="none" xmlns="http://www.w3.org/2000/svg">
<g filter="url(#filter0_b_785_1696)">
<rect x="-0.00292969" width="56" height="56" rx="28" fill="white" fill-opacity="0.3"/>
<rect x="0.34707" y="0.35" width="55.3" height="55.3" rx="27.65" stroke="#817971" stroke-opacity="0.2" stroke-width="0.7"/>
<path d="M28.0156 20.8945V24.8526" stroke="#25888C" stroke-width="0.931318"/>
<path d="M28.0156 28.4385V32.3966" stroke="#25888C" stroke-width="0.931318"/>
<path d="M39.6572 26.1094L39.6572 32.4424" stroke="#25888C" stroke-width="0.931318"/>
<path d="M16.374 26.1094L16.374 32.4424" stroke="#25888C" stroke-width="0.931318"/>
<path d="M26.3398 26.5752L16.4679 26.5752" stroke="#25888C" stroke-width="0.931318"/>
<path d="M39.6572 26.5752L29.7853 26.5752" stroke="#25888C" stroke-width="0.931318"/>
<path d="M39.6388 35.8324C39.8614 35.8324 40.0818 35.7885 40.2875 35.7034C40.4931 35.6182 40.68 35.4933 40.8374 35.3359C40.9948 35.1785 41.1196 34.9917 41.2048 34.786C41.29 34.5804 41.3338 34.36 41.3338 34.1374C41.3338 33.9148 41.29 33.6944 41.2048 33.4887C41.1196 33.2831 40.9948 33.0962 40.8374 32.9388C40.68 32.7814 40.4931 32.6566 40.2875 32.5714C40.0818 32.4862 39.8614 32.4424 39.6388 32.4424C39.1893 32.4424 38.7582 32.621 38.4403 32.9388C38.1224 33.2567 37.9438 33.6878 37.9438 34.1374C37.9438 34.5869 38.1224 35.0181 38.4403 35.3359C38.7582 35.6538 39.1893 35.8324 39.6388 35.8324ZM35.2803 40.869V41.1595H43.9974V40.869C43.9974 39.7842 43.9974 39.2418 43.7862 38.8272C43.6005 38.4627 43.3042 38.1664 42.9397 37.9807C42.5252 37.7695 41.9828 37.7695 40.898 37.7695H38.3797C37.2949 37.7695 36.7525 37.7695 36.338 37.9807C35.9735 38.1664 35.6771 38.4627 35.4914 38.8272C35.2803 39.2418 35.2803 39.7842 35.2803 40.869Z" stroke="black" stroke-width="0.968571" stroke-linecap="round" stroke-linejoin="round"/>
<path d="M23.6387 17.7465V15.8094C23.6387 15.5525 23.7407 15.3062 23.9224 15.1245C24.104 14.9429 24.3504 14.8408 24.6072 14.8408H31.3872C31.6441 14.8408 31.8905 14.9429 32.0721 15.1245C32.2537 15.3062 32.3558 15.5525 32.3558 15.8094V17.7465M23.6387 17.7465H32.3558M23.6387 17.7465V19.6837C23.6387 19.9406 23.7407 20.1869 23.9224 20.3686C24.104 20.5502 24.3504 20.6523 24.6072 20.6523H31.3872C31.6441 20.6523 31.8905 20.5502 32.0721 20.3686C32.2537 20.1869 32.3558 19.9406 32.3558 19.6837V17.7465M25.0915 16.2937H25.0964M25.0915 19.1994H25.0964M26.5444 16.2937H26.5492M26.5444 19.1994H26.5492" stroke="black" stroke-width="0.968571" stroke-linecap="round" stroke-linejoin="round"/>
<path d="M16.3556 35.8324C16.5782 35.8324 16.7986 35.7885 17.0043 35.7034C17.2099 35.6182 17.3968 35.4933 17.5542 35.3359C17.7116 35.1785 17.8364 34.9917 17.9216 34.786C18.0068 34.5804 18.0506 34.36 18.0506 34.1374C18.0506 33.9148 18.0068 33.6944 17.9216 33.4887C17.8364 33.2831 17.7116 33.0962 17.5542 32.9388C17.3968 32.7814 17.2099 32.6566 17.0043 32.5714C16.7986 32.4862 16.5782 32.4424 16.3556 32.4424C15.9061 32.4424 15.475 32.621 15.1571 32.9388C14.8392 33.2567 14.6606 33.6878 14.6606 34.1374C14.6606 34.5869 14.8392 35.0181 15.1571 35.3359C15.475 35.6538 15.9061 35.8324 16.3556 35.8324ZM11.9971 40.869V41.1595H20.7142V40.869C20.7142 39.7842 20.7142 39.2418 20.503 38.8272C20.3173 38.4627 20.021 38.1664 19.6565 37.9807C19.242 37.7695 18.6996 37.7695 17.6148 37.7695H15.0965C14.0117 37.7695 13.4693 37.7695 13.0547 37.9807C12.6903 38.1664 12.3939 38.4627 12.2082 38.8272C11.9971 39.2418 11.9971 39.7842 11.9971 40.869Z" stroke="black" stroke-width="0.968571" stroke-linecap="round" stroke-linejoin="round"/>
<path d="M27.9972 35.8324C28.2198 35.8324 28.4402 35.7885 28.6459 35.7034C28.8515 35.6182 29.0384 35.4933 29.1958 35.3359C29.3532 35.1785 29.478 34.9917 29.5632 34.786C29.6484 34.5804 29.6922 34.36 29.6922 34.1374C29.6922 33.9148 29.6484 33.6944 29.5632 33.4887C29.478 33.2831 29.3532 33.0962 29.1958 32.9388C29.0384 32.7814 28.8515 32.6566 28.6459 32.5714C28.4402 32.4862 28.2198 32.4424 27.9972 32.4424C27.5477 32.4424 27.1166 32.621 26.7987 32.9388C26.4808 33.2567 26.3022 33.6878 26.3022 34.1374C26.3022 34.5869 26.4808 35.0181 26.7987 35.3359C27.1166 35.6538 27.5477 35.8324 27.9972 35.8324ZM23.6387 40.869V41.1595H32.3558V40.869C32.3558 39.7842 32.3558 39.2418 32.1446 38.8272C31.9589 38.4627 31.6626 38.1664 31.2981 37.9807C30.8836 37.7695 30.3412 37.7695 29.2564 37.7695H26.7381C25.6533 37.7695 25.1109 37.7695 24.6963 37.9807C24.3319 38.1664 24.0355 38.4627 23.8498 38.8272C23.6387 39.2418 23.6387 39.7842 23.6387 40.869Z" stroke="black" stroke-width="0.968571" stroke-linecap="round" stroke-linejoin="round"/>
<path d="M28.0348 28.2894C28.2574 28.2894 28.4778 28.2456 28.6835 28.1604C28.8891 28.0752 29.076 27.9504 29.2334 27.793C29.3908 27.6356 29.5156 27.4487 29.6008 27.2431C29.686 27.0374 29.7298 26.817 29.7298 26.5944C29.7298 26.3718 29.686 26.1514 29.6008 25.9458C29.5156 25.7401 29.3908 25.5533 29.2334 25.3959C29.076 25.2385 28.8891 25.1136 28.6835 25.0284C28.4778 24.9433 28.2574 24.8994 28.0348 24.8994C27.5853 24.8994 27.1542 25.078 26.8363 25.3959C26.5184 25.7137 26.3398 26.1449 26.3398 26.5944C26.3398 27.044 26.5184 27.4751 26.8363 27.793C27.1542 28.1108 27.5853 28.2894 28.0348 28.2894Z" stroke="black" stroke-width="0.968571" stroke-linecap="round" stroke-linejoin="round"/>
<ellipse cx="25.0816" cy="16.2847" rx="0.512224" ry="0.512226" fill="#25888C"/>
<ellipse cx="25.0816" cy="19.1714" rx="0.512224" ry="0.512226" fill="#25888C"/>
<ellipse cx="26.5728" cy="16.2847" rx="0.512224" ry="0.512226" fill="#25888C"/>
<ellipse cx="26.5728" cy="19.1714" rx="0.512224" ry="0.512226" fill="#25888C"/>
</g>
<defs>
<filter id="filter0_b_785_1696" x="-28.0029" y="-28" width="112" height="112" filterUnits="userSpaceOnUse" color-interpolation-filters="sRGB">
<feFlood flood-opacity="0" result="BackgroundImageFix"/>
<feGaussianBlur in="BackgroundImageFix" stdDeviation="14"/>
<feComposite in2="SourceAlpha" operator="in" result="effect1_backgroundBlur_785_1696"/>
<feBlend mode="normal" in="SourceGraphic" in2="effect1_backgroundBlur_785_1696" result="shape"/>
</filter>
</defs>
</svg>
