<svg width="56" height="56" viewBox="0 0 56 56" fill="none" xmlns="http://www.w3.org/2000/svg">
<g filter="url(#filter0_b_785_1730)">
<rect x="-0.00292969" width="56" height="56" rx="28" fill="white" fill-opacity="0.3"/>
<rect x="0.288737" y="0.291667" width="55.4167" height="55.4167" rx="27.7083" stroke="#817971" stroke-opacity="0.2" stroke-width="0.583333"/>
<path d="M34.4227 32.7097L33.9363 34.6675L29.6288 37.788L29.6535 43.5858L32.9383 43.6066L32.7538 39.4084C36.1786 37.2661 37.891 35.6968 37.891 34.7007V25.8244M21.5585 32.7468L22.0696 34.7012L26.2099 37.8751L26.3875 43.6699L23.0429 43.6066L23.1433 39.6034C19.7821 37.6698 18.1016 36.1974 18.1016 35.186V25.8096" stroke="black" stroke-width="1.05263" stroke-linecap="round" stroke-linejoin="round"/>
<path d="M37.891 22.1067C37.891 16.6419 33.461 12.2119 27.9963 12.2119C22.5316 12.2119 18.1016 16.6419 18.1016 22.1067" stroke="black" stroke-width="1.05263" stroke-linecap="round"/>
<path d="M27.8115 29.4952C28.3569 27.9548 28.036 26.1921 26.839 24.9853C25.6419 23.7784 23.8935 23.4549 22.3666 24.0038C21.8212 25.5451 22.1421 27.3088 23.3392 28.5147C24.5362 29.7215 26.2846 30.045 27.8125 29.4962M28.2834 31.5413C27.8284 30.2584 28.0956 28.7891 29.094 27.7826C30.0924 26.776 31.5478 26.5076 32.8213 26.9663C33.2763 28.2493 33.0091 29.7185 32.0117 30.7251C31.0143 31.7316 29.556 32.0001 28.2834 31.5413Z" stroke="#25888C" stroke-width="1.45689" stroke-linecap="round" stroke-linejoin="round"/>
<path d="M27.9355 21.3174L27.9355 28.359" stroke="#25888C" stroke-width="1.21408"/>
<path d="M27.9355 27.6309L27.9355 33.5798" stroke="#25888C" stroke-width="1.21408" stroke-linecap="round"/>
<path d="M27.9616 21.3665C28.2517 21.3665 28.5391 21.3094 28.8072 21.1983C29.0752 21.0873 29.3188 20.9245 29.524 20.7193C29.7292 20.5141 29.892 20.2706 30.003 20.0025C30.114 19.7344 30.1712 19.4471 30.1712 19.1569C30.1712 18.8667 30.114 18.5794 30.003 18.3113C29.892 18.0432 29.7292 17.7996 29.524 17.5944C29.3188 17.3893 29.0752 17.2265 28.8072 17.1155C28.5391 17.0044 28.2517 16.9473 27.9616 16.9473C27.3755 16.9473 26.8135 17.1801 26.3991 17.5944C25.9848 18.0088 25.752 18.5709 25.752 19.1569C25.752 19.7429 25.9848 20.3049 26.3991 20.7193C26.8135 21.1337 27.3755 21.3665 27.9616 21.3665Z" stroke="#25888C" stroke-width="1.26264" stroke-linecap="round" stroke-linejoin="round"/>
</g>
<defs>
<filter id="filter0_b_785_1730" x="-23.3363" y="-23.3333" width="102.667" height="102.667" filterUnits="userSpaceOnUse" color-interpolation-filters="sRGB">
<feFlood flood-opacity="0" result="BackgroundImageFix"/>
<feGaussianBlur in="BackgroundImageFix" stdDeviation="11.6667"/>
<feComposite in2="SourceAlpha" operator="in" result="effect1_backgroundBlur_785_1730"/>
<feBlend mode="normal" in="SourceGraphic" in2="effect1_backgroundBlur_785_1730" result="shape"/>
</filter>
</defs>
</svg>
