<svg width="56" height="56" viewBox="0 0 56 56" fill="none" xmlns="http://www.w3.org/2000/svg">
<g filter="url(#filter0_b_785_1717)">
<rect x="-0.00292969" width="56" height="56" rx="28" fill="white" fill-opacity="0.3"/>
<rect x="0.34707" y="0.35" width="55.3" height="55.3" rx="27.65" stroke="#817971" stroke-opacity="0.2" stroke-width="0.7"/>
<g clip-path="url(#clip0_785_1717)">
<path d="M36.4128 35.2458C36.4055 35.2458 34.8402 35.2479 34.834 35.2479C36.1949 34.165 37.069 32.4951 37.069 30.6247C37.069 27.2976 34.3027 24.6018 30.947 24.7229L30.9477 24.0193L32.2504 24.0164C32.8436 24.0151 33.1312 23.2853 32.6963 22.88L26.3602 16.9759C26.1081 16.7411 25.7173 16.7411 25.4652 16.9761L19.134 22.8801C18.6997 23.2852 18.9866 24.0164 19.5816 24.0164H20.8859V37.1933C20.8859 37.5557 21.1798 37.8496 21.5422 37.8496H25.215C25.25 38.3733 25.1122 38.7129 25.4075 39.0078C25.6175 39.2177 25.8672 39.1988 25.8721 39.1998L36.4136 39.1855C36.7757 39.185 37.069 38.8913 37.069 38.5293V35.9021C37.069 35.54 36.7754 35.2458 36.4128 35.2458ZM35.7565 30.6247C35.7565 33.1577 33.6958 35.2185 31.1628 35.2185C28.6298 35.2185 26.569 33.1577 26.569 30.6247C26.569 28.0918 28.6298 26.031 31.1628 26.031C33.6958 26.031 35.7565 28.0918 35.7565 30.6247ZM22.1984 36.5371V23.3601C22.1984 22.9976 21.9046 22.7038 21.5422 22.7038H21.2475L25.913 18.3532L30.586 22.7075L30.2907 22.7082C29.9291 22.709 29.6363 23.0022 29.6359 23.3637L29.6342 24.9194C24.9551 26.1743 23.692 32.2411 27.5038 35.2578L25.8703 35.26C25.5082 35.2606 25.215 35.5542 25.215 35.9163V36.537H22.1984V36.5371ZM35.7565 37.8738L26.5275 37.8863V36.5716L35.7565 36.5592V37.8738Z" fill="black"/>
<path d="M33.8355 31.5718H33.1799C33.1539 31.5718 33.1327 31.5507 33.1327 31.5248V29.702C33.1327 29.6761 33.1539 29.6549 33.1799 29.6549H33.8355C33.9781 29.6549 34.1149 29.5958 34.2109 29.4927C34.3058 29.3908 34.3525 29.2584 34.3422 29.1198C34.3233 28.861 34.1045 28.6583 33.8443 28.6583H33.1799C33.1539 28.6583 33.1327 28.6372 33.1327 28.6112V27.9573C33.1327 27.815 33.0735 27.6784 32.9701 27.5826C32.8681 27.4879 32.7354 27.4413 32.5966 27.4516C32.3372 27.4706 32.1341 27.6889 32.1341 27.9485V28.6112C32.1341 28.6372 32.1129 28.6583 32.0869 28.6583H30.2606C30.2346 28.6583 30.2134 28.6372 30.2134 28.6112V27.9573C30.2134 27.815 30.1542 27.6784 30.0509 27.5826C29.9487 27.4879 29.8162 27.4413 29.6772 27.4516C29.418 27.4706 29.2149 27.6889 29.2149 27.9485V28.6112C29.2149 28.6372 29.1937 28.6583 29.1676 28.6583H28.513C28.3704 28.6583 28.2335 28.7174 28.1376 28.8205C28.0427 28.9225 27.996 29.0549 28.0063 29.1935C28.0253 29.4522 28.2441 29.6549 28.5042 29.6549H29.1676C29.1937 29.6549 29.2149 29.6761 29.2149 29.702V31.5248C29.2149 31.5507 29.1937 31.5718 29.1676 31.5718H28.513C28.3704 31.5718 28.2335 31.631 28.1376 31.7341C28.0427 31.836 27.996 31.9685 28.0063 32.1071C28.0253 32.3658 28.2441 32.5685 28.5042 32.5685H29.1676C29.1937 32.5685 29.2149 32.5897 29.2149 32.6156V33.2695C29.2149 33.4118 29.2741 33.5483 29.3774 33.6443C29.4796 33.739 29.6122 33.7854 29.7511 33.7753C30.0103 33.7562 30.2134 33.5379 30.2134 33.2782V32.6156C30.2134 32.5897 30.2346 32.5685 30.2606 32.5685H32.0869C32.1129 32.5685 32.1341 32.5897 32.1341 32.6156V33.2695C32.1341 33.4118 32.1934 33.5484 32.2967 33.6443C32.3896 33.7303 32.5078 33.7767 32.6328 33.7767C32.6453 33.7767 32.6577 33.7761 32.6704 33.7753C32.9296 33.7562 33.1327 33.5379 33.1327 33.2782V32.6156C33.1327 32.5897 33.1539 32.5685 33.1799 32.5685H33.8443C34.1045 32.5685 34.3233 32.3658 34.3422 32.1071C34.3525 31.9685 34.3058 31.836 34.2109 31.7341C34.1149 31.631 33.9781 31.5718 33.8355 31.5718ZM32.1341 31.5248C32.1341 31.5507 32.1129 31.5718 32.0869 31.5718H30.2606C30.2346 31.5718 30.2134 31.5507 30.2134 31.5248V29.702C30.2134 29.6761 30.2346 29.6549 30.2606 29.6549H32.0869C32.1129 29.6549 32.1341 29.6761 32.1341 29.702V31.5248Z" fill="#25888C"/>
</g>
</g>
<defs>
<filter id="filter0_b_785_1717" x="-28.0029" y="-28" width="112" height="112" filterUnits="userSpaceOnUse" color-interpolation-filters="sRGB">
<feFlood flood-opacity="0" result="BackgroundImageFix"/>
<feGaussianBlur in="BackgroundImageFix" stdDeviation="14"/>
<feComposite in2="SourceAlpha" operator="in" result="effect1_backgroundBlur_785_1717"/>
<feBlend mode="normal" in="SourceGraphic" in2="effect1_backgroundBlur_785_1717" result="shape"/>
</filter>
<clipPath id="clip0_785_1717">
<rect width="22.4" height="22.4" fill="white" transform="translate(16.7969 16.7998)"/>
</clipPath>
</defs>
</svg>
