<svg width="56" height="56" viewBox="0 0 56 56" fill="none" xmlns="http://www.w3.org/2000/svg">
<g filter="url(#filter0_b_785_1724)">
<rect x="-0.00292969" width="56" height="56" rx="28" fill="white" fill-opacity="0.3"/>
<rect x="0.288737" y="0.291667" width="55.4167" height="55.4167" rx="27.7083" stroke="#817971" stroke-opacity="0.2" stroke-width="0.583333"/>
<g clip-path="url(#clip0_785_1724)">
<path d="M35.4971 25.4688H35.2627V23.2656C35.2627 19.2593 32.0034 16 27.9971 16C23.9907 16 20.7314 19.2593 20.7314 23.2656V25.4688H20.4971C19.5923 25.4688 18.8564 26.2047 18.8564 27.1094V38.3594C18.8564 39.2641 19.5923 40 20.4971 40H35.4971C36.4018 40 37.1377 39.2641 37.1377 38.3594V27.1094C37.1377 26.2047 36.4018 25.4688 35.4971 25.4688ZM22.1377 23.2656C22.1377 20.0347 24.7662 17.4062 27.9971 17.4062C31.228 17.4062 33.8564 20.0347 33.8564 23.2656V25.4688H32.4502V23.2656C32.4502 20.8102 30.4525 18.8125 27.9971 18.8125C25.5416 18.8125 23.5439 20.8102 23.5439 23.2656V25.4688H22.1377V23.2656ZM24.9502 25.4688V23.2656C24.9502 21.5856 26.3171 20.2188 27.9971 20.2188C29.6771 20.2188 31.0439 21.5856 31.0439 23.2656V25.4688H24.9502ZM35.7314 38.3594C35.7314 38.4886 35.6263 38.5938 35.4971 38.5938H20.4971C20.3678 38.5938 20.2627 38.4886 20.2627 38.3594V27.1094C20.2627 26.9801 20.3678 26.875 20.4971 26.875H35.4971C35.6263 26.875 35.7314 26.9801 35.7314 27.1094V38.3594Z" fill="black"/>
<path d="M30.178 32.8574C30.4681 32.5599 30.6429 32.1779 30.6429 31.7618C30.6429 30.815 29.7387 30.0447 28.6273 30.0447H28.4319V29.5621C28.4319 29.2517 28.1803 29 27.8698 29C27.5594 29 27.3077 29.2517 27.3077 29.5621V30.0447H25.476C25.2115 30.0447 24.9971 30.2591 24.9971 30.5236C24.9971 30.7881 25.2115 31.0025 25.476 31.0025H25.9565V34.9975H25.476C25.2115 34.9975 24.9971 35.2119 24.9971 35.4764C24.9971 35.7409 25.2115 35.9553 25.476 35.9553H27.3077V36.4379C27.3077 36.7483 27.5594 37 27.8698 37C28.1803 37 28.4319 36.7483 28.4319 36.4379V35.9553H28.9815C30.0929 35.9553 30.9971 35.185 30.9971 34.2382C30.997 33.6728 30.6744 33.1704 30.178 32.8574ZM28.6273 31.0025C29.1188 31.0025 29.5187 31.3431 29.5187 31.7618C29.5187 32.1805 29.1188 32.5211 28.6273 32.5211H27.0807V31.0025H28.6273ZM28.9815 34.9975H27.0807V33.4789H28.6274H28.9815C29.473 33.4789 29.8729 33.8195 29.8729 34.2382C29.8729 34.6569 29.473 34.9975 28.9815 34.9975Z" fill="#25888C"/>
</g>
</g>
<defs>
<filter id="filter0_b_785_1724" x="-23.3363" y="-23.3333" width="102.667" height="102.667" filterUnits="userSpaceOnUse" color-interpolation-filters="sRGB">
<feFlood flood-opacity="0" result="BackgroundImageFix"/>
<feGaussianBlur in="BackgroundImageFix" stdDeviation="11.6667"/>
<feComposite in2="SourceAlpha" operator="in" result="effect1_backgroundBlur_785_1724"/>
<feBlend mode="normal" in="SourceGraphic" in2="effect1_backgroundBlur_785_1724" result="shape"/>
</filter>
<clipPath id="clip0_785_1724">
<rect width="24" height="24" fill="white" transform="translate(15.9971 16)"/>
</clipPath>
</defs>
</svg>
